# xmcd
#
# Track frame offsets: 
#        150
#        16757
#        30174
#        51655
#        71816
#        90299
#        113926
#        127678
#        149253
#        174011
#        189328
#
# Disc length: 2667 seconds
#
# Revision: 1
# Processed by: cddbd v1.5.2PL0 Copyright (c) Steve Scherf et al.
# Submitted via: ExactAudioCopyFreeDBPlugin 1.0
#
DISCID=810a690b
DTITLE=John Denver - The Box Set Series Disc 2
DYEAR=2014
DGENRE=Country
TTITLE0=Goodbye Again
TTITLE1=For Baby (For Bobby)
TTITLE2=Rocky Mountain High
TTITLE3=I'd Rather Be a Cowboy (Lady's Chains)
TTITLE4=Farewell Andromeda (Welcome to My Morning)
TTITLE5=Sunshine on My Shoulders
TTITLE6=Annie's Song
TTITLE7=Back Home Again
TTITLE8=Sweet Surrender
TTITLE9=Thank God I'm a Country Boy
TTITLE10=Aspenglow
EXTD=
EXTT0=
EXTT1=
EXTT2=
EXTT3=
EXTT4=
EXTT5=
EXTT6=
EXTT7=
EXTT8=
EXTT9=
EXTT10=
PLAYORDER=
